<svg xmlns="http://www.w3.org/2000/svg" viewBox="0 0 216 216"><defs><style>.cls-1{fill:none;}.cls-2{fill:#252525;}</style></defs><title>icon4</title><g id="Layer_2" data-name="Layer 2"><g id="Layer_1-2" data-name="Layer 1"><rect class="cls-1" width="216" height="216"/><path class="cls-2" d="M184.39,78.35V75.08A8.65,8.65,0,0,0,176,66.44l-6.22-24.87a8,8,0,0,0-7.8-6.09H83.8v-10A5.47,5.47,0,0,0,78.34,20H68a5.47,5.47,0,0,0-5.46,5.46v10H54a8,8,0,0,0-7.8,6.09L40,66.44a8.65,8.65,0,0,0-8.36,8.64v3.27A8.65,8.65,0,0,0,39.77,87v87.81a8.65,8.65,0,0,0-8.16,8.63v3.94A8.66,8.66,0,0,0,40.26,196H175.74a8.66,8.66,0,0,0,8.65-8.65v-3.94a8.65,8.65,0,0,0-8.16-8.63V87A8.65,8.65,0,0,0,184.39,78.35Zm-13.93,96.41h-48V141.83a5.78,5.78,0,0,0-5.77-5.76H99.28a5.78,5.78,0,0,0-5.77,5.76v32.93h-48V87.67H170.46Zm-53.74,0H99.28V141.83h17.44ZM164.21,43l5.87,23.46H145.7V41.24H162A2.27,2.27,0,0,1,164.21,43ZM122.49,66.43V41.24h17.45V66.43Zm-23.21,0V41.24h17.44V66.43Zm-23.22,0V41.24H93.51V66.43ZM68.32,25.77H78v9.71H68.32ZM51.79,43A2.27,2.27,0,0,1,54,41.24H70.3V66.43H45.92ZM37.37,78.35V75.08a2.9,2.9,0,0,1,2.89-2.89H175.74a2.9,2.9,0,0,1,2.89,2.89v3.27a2.89,2.89,0,0,1-2.89,2.88H40.26A2.89,2.89,0,0,1,37.37,78.35ZM178.63,183.41v3.94a2.89,2.89,0,0,1-2.89,2.88H40.26a2.89,2.89,0,0,1-2.89-2.88v-3.94a2.9,2.9,0,0,1,2.89-2.89H175.74A2.9,2.9,0,0,1,178.63,183.41Z"/><path class="cls-2" d="M60.59,134.1H85.77a5.78,5.78,0,0,0,5.77-5.77V103.14a5.78,5.78,0,0,0-5.77-5.76H60.59a5.78,5.78,0,0,0-5.77,5.76v25.19A5.78,5.78,0,0,0,60.59,134.1Zm0-5.77v-9.71H85.77v9.71Zm25.18-25.19v9.72H60.59v-9.72Z"/><path class="cls-2" d="M130.23,134.1h25.18a5.78,5.78,0,0,0,5.77-5.77V103.14a5.78,5.78,0,0,0-5.77-5.76H130.23a5.78,5.78,0,0,0-5.77,5.76v25.19A5.78,5.78,0,0,0,130.23,134.1Zm0-5.77v-9.71h25.18v9.71Zm25.18-25.19v9.72H130.23v-9.72Z"/></g></g></svg>