<svg xmlns="http://www.w3.org/2000/svg" viewBox="0 0 216 216"><defs><style>.cls-1{fill:none;}.cls-2{fill:#252525;}</style></defs><title>icon7</title><g id="Layer_2" data-name="Layer 2"><g id="Layer_1-2" data-name="Layer 1"><rect class="cls-1" width="216" height="216"/><path class="cls-2" d="M197.62,100.44l-6-6L184.2,64.75a5.41,5.41,0,0,0-5.25-4.1H143.18a5.42,5.42,0,0,0-5.42,5.41v64.87a2.71,2.71,0,0,0,5.42,0V66.06H179l.68,2.72-28.36.13a5.42,5.42,0,0,0-5.39,5.41v19a5.41,5.41,0,0,0,5.41,5.41h36.92l5.59,5.59a2.69,2.69,0,0,1,.79,1.91v30.23H21.41a2.71,2.71,0,0,0,0,5.41H40.56a18.95,18.95,0,1,0,37.47,0h76.18a18.94,18.94,0,1,0,37.46,0h2.92a5.41,5.41,0,0,0,5.41-5.41V106.18A8,8,0,0,0,197.62,100.44Zm-46.33-7.17v-19l29.64-.13,4.78,19.08ZM72.82,144.53A13.53,13.53,0,1,1,46,141.82H72.55A13.61,13.61,0,0,1,72.82,144.53Zm113.65,0a13.53,13.53,0,1,1-26.79-2.71H186.2A13.61,13.61,0,0,1,186.47,144.53Z"/><path class="cls-2" d="M129.65,133.63a5.41,5.41,0,0,0,5.41-5.41V57.94a5.42,5.42,0,0,0-5.41-5.41h-2.71a5.42,5.42,0,0,0-5.41,5.41v4l-22.47,15H21.41A5.42,5.42,0,0,0,16,82.29v45.93a5.41,5.41,0,0,0,5.41,5.41Zm-8.12-65.22v8.47H108.82ZM21.41,82.29H121.53a5.41,5.41,0,0,0,5.41-5.41V63.37h0V57.94h2.71v70.28H21.41Z"/><path class="cls-2" d="M34.94,85a2.7,2.7,0,0,0-2.7,2.71v34.76a2.71,2.71,0,1,0,5.41,0V87.71A2.71,2.71,0,0,0,34.94,85Z"/><path class="cls-2" d="M51.18,85a2.71,2.71,0,0,0-2.71,2.71v34.76a2.71,2.71,0,1,0,5.41,0V87.71A2.7,2.7,0,0,0,51.18,85Z"/><path class="cls-2" d="M67.41,85a2.7,2.7,0,0,0-2.7,2.71v34.76a2.71,2.71,0,1,0,5.41,0V87.71A2.71,2.71,0,0,0,67.41,85Z"/><path class="cls-2" d="M116.12,85a2.71,2.71,0,0,0-2.71,2.71v34.76a2.71,2.71,0,1,0,5.41,0V87.71A2.7,2.7,0,0,0,116.12,85Z"/><path class="cls-2" d="M83.65,85a2.71,2.71,0,0,0-2.71,2.71v34.76a2.71,2.71,0,1,0,5.41,0V87.71A2.7,2.7,0,0,0,83.65,85Z"/><path class="cls-2" d="M99.88,85a2.7,2.7,0,0,0-2.7,2.71v34.76a2.71,2.71,0,1,0,5.41,0V87.71A2.71,2.71,0,0,0,99.88,85Z"/></g></g></svg>