<svg xmlns="http://www.w3.org/2000/svg" viewBox="0 0 216 216"><defs><style>.cls-1{fill:none;}.cls-2{fill:#252525;}</style></defs><title>icon2</title><g id="Layer_2" data-name="Layer 2"><g id="Layer_1-2" data-name="Layer 1"><rect class="cls-1" width="216" height="216"/><path class="cls-2" d="M185.06,135.89H169.5V108a2.94,2.94,0,0,0-2.93-2.94h-9.4v-25h12.48a2.94,2.94,0,0,0,2.94-2.94V46.35a2.94,2.94,0,0,0-2.94-2.94H97.21a2.94,2.94,0,0,0-2.94,2.94V74.24H64.7V46.35a2.94,2.94,0,0,0-2.94-2.94H30.94A2.94,2.94,0,0,0,28,46.35v123.3a2.94,2.94,0,0,0,2.94,2.94H185.06a2.94,2.94,0,0,0,2.94-2.94V138.83A2.93,2.93,0,0,0,185.06,135.89Zm-21.43,0H138.68V110.94h24.95Zm-34,0H89.36V110.94h43.45v24.95Zm-55.49,0H33.87V110.94H83.49v24.95ZM77,80.11h43.45v25H77Zm74.27,25h-25v-25h25Zm15.42-30.82h-25v-25h25Zm-66.57-25h35.74v25H100.15Zm-29,55.78H33.87v-25H71.16ZM33.87,49.28h25v25h-25Zm0,92.48H71.16v25H33.87Zm43.16,0h49.61v25H77Zm105.1,25H132.51v-25h49.62Z"/></g></g></svg>