<svg xmlns="http://www.w3.org/2000/svg" viewBox="0 0 216 216"><defs><style>.cls-1{fill:none;}.cls-2{fill:#252525;}</style></defs><title>icon6</title><g id="Layer_2" data-name="Layer 2"><g id="Layer_1-2" data-name="Layer 1"><rect class="cls-1" width="216" height="216"/><path class="cls-2" d="M175.18,70.79l-6-3.47h0L145.08,53.41,147,50a7.64,7.64,0,0,0-2.79-10.42l-16-9.25a7.65,7.65,0,0,0-10.43,2.79l-2,3.41L95.91,25a7.63,7.63,0,0,0-7.16-.25L86.31,26c-3.62,1.79-7,3.47-10.65,4.84l-17,6.41A7.14,7.14,0,0,0,54.14,43a6.75,6.75,0,0,0,2.75,6.46,6,6,0,0,0,.65.42h0L95.49,71.77,38,171.3a7.63,7.63,0,0,0,2.79,10.42l16,9.25a7.59,7.59,0,0,0,3.8,1,7.94,7.94,0,0,0,2-.26,7.57,7.57,0,0,0,4.63-3.56l3.47-6h0l54-93.52,24.09,13.91h0l6,3.46a7.59,7.59,0,0,0,3.81,1,7.86,7.86,0,0,0,2-.26,7.59,7.59,0,0,0,4.64-3.56l12.71-22A7.63,7.63,0,0,0,175.18,70.79ZM121,39.53l2-3.4a1.65,1.65,0,0,1,1-.76,1.6,1.6,0,0,1,1.23.17l16,9.25a1.61,1.61,0,0,1,.59,2.21l-2,3.4-13.9-8Zm-60.64,5a.76.76,0,0,1-.3-.79,1.11,1.11,0,0,1,.71-.92l17-6.42C81.66,35,85.38,33.13,89,31.36l2.41-1.18a1.63,1.63,0,0,1,1.53.05L135.84,55l3.63,2.09h0L163.56,71,149.23,95.86l-24.1-13.92h0l-24-13.87h0L60.55,44.66h0Zm1.66,140.62a1.63,1.63,0,0,1-2.21.59l-16-9.25a1.62,1.62,0,0,1-.6-2.21l2-3.41L64,181.77Zm57.46-99.53L67,176.56,48.2,165.7l52.5-90.92,12.8,7.39Zm53.25-7.44-12.72,22a1.62,1.62,0,0,1-2.21.59l-3.41-2L168.77,74l3.4,2A1.63,1.63,0,0,1,172.77,78.21Z"/></g></g></svg>