<svg xmlns="http://www.w3.org/2000/svg" viewBox="0 0 216 216"><defs><style>.cls-1{fill:none;}.cls-2{fill:#252525;}</style></defs><title>icon1</title><g id="Layer_2" data-name="Layer 2"><g id="Layer_1-2" data-name="Layer 1"><rect class="cls-1" width="216" height="216"/><path class="cls-2" d="M175.86,72.71V67.29A35.33,35.33,0,0,0,140.57,32H75.43A35.33,35.33,0,0,0,40.14,67.29v5.42A8.16,8.16,0,0,0,32,80.86v21.71a8.15,8.15,0,0,0,8.14,8.14v48.86a8.16,8.16,0,0,0,8.15,8.14v8.15A8.15,8.15,0,0,0,56.43,184H70a8.15,8.15,0,0,0,8.14-8.14v-8.15h59.72v8.15A8.15,8.15,0,0,0,146,184h13.57a8.15,8.15,0,0,0,8.14-8.14v-8.15a8.16,8.16,0,0,0,8.15-8.14V110.71a8.15,8.15,0,0,0,8.14-8.14V80.86A8.16,8.16,0,0,0,175.86,72.71ZM37.43,102.57V80.86a2.72,2.72,0,0,1,2.71-2.72v27.15A2.72,2.72,0,0,1,37.43,102.57Zm35.28,73.29A2.71,2.71,0,0,1,70,178.57H56.43a2.72,2.72,0,0,1-2.72-2.71v-8.15h19Zm89.58,0a2.72,2.72,0,0,1-2.72,2.71H146a2.71,2.71,0,0,1-2.71-2.71v-8.15h19Zm8.14-16.29a2.72,2.72,0,0,1-2.72,2.72H48.29a2.72,2.72,0,0,1-2.72-2.72V67.29A29.89,29.89,0,0,1,75.43,37.43h65.14a29.89,29.89,0,0,1,29.86,29.86v92.28Zm8.14-57a2.72,2.72,0,0,1-2.71,2.72V78.14a2.72,2.72,0,0,1,2.71,2.72Z"/><path class="cls-2" d="M159.57,110.71V80.86a8.16,8.16,0,0,0-8.14-8.15H64.57a8.16,8.16,0,0,0-8.14,8.15v29.85a8.16,8.16,0,0,0,8.14,8.15h86.86A8.16,8.16,0,0,0,159.57,110.71Zm-5.43-29.85v29.85a2.71,2.71,0,0,1-2.71,2.72H110.71V78.14h40.72A2.71,2.71,0,0,1,154.14,80.86ZM61.86,110.71V80.86a2.71,2.71,0,0,1,2.71-2.72h40.72v35.29H64.57A2.71,2.71,0,0,1,61.86,110.71Z"/><path class="cls-2" d="M89,65.93h38a8.15,8.15,0,0,0,8.14-8.14V52.36A8.16,8.16,0,0,0,127,44.21H89a8.16,8.16,0,0,0-8.14,8.15v5.43A8.15,8.15,0,0,0,89,65.93ZM86.29,52.36A2.71,2.71,0,0,1,89,49.64h38a2.71,2.71,0,0,1,2.71,2.72v5.43A2.71,2.71,0,0,1,127,60.5H89a2.71,2.71,0,0,1-2.71-2.71Z"/><path class="cls-2" d="M132.43,127.23H83.57a2.71,2.71,0,1,0,0,5.42h48.86a2.71,2.71,0,0,0,0-5.42Z"/><path class="cls-2" d="M132.43,138.54H83.57a2.71,2.71,0,1,0,0,5.42h48.86a2.71,2.71,0,0,0,0-5.42Z"/><path class="cls-2" d="M132.43,149.85H83.57a2.71,2.71,0,1,0,0,5.42h48.86a2.71,2.71,0,0,0,0-5.42Z"/><path class="cls-2" d="M59.14,137.86A10.86,10.86,0,1,0,70,148.71,10.87,10.87,0,0,0,59.14,137.86Zm0,16.28a5.43,5.43,0,1,1,5.43-5.43A5.44,5.44,0,0,1,59.14,154.14Z"/><path class="cls-2" d="M156.86,137.86a10.86,10.86,0,1,0,10.85,10.85A10.87,10.87,0,0,0,156.86,137.86Zm0,16.28a5.43,5.43,0,1,1,5.43-5.43A5.43,5.43,0,0,1,156.86,154.14Z"/></g></g></svg>