<svg xmlns="http://www.w3.org/2000/svg" viewBox="0 0 216 216"><defs><style>.cls-1{fill:none;}.cls-2{fill:#252525;}</style></defs><title>icon3</title><g id="Layer_2" data-name="Layer 2"><g id="Layer_1-2" data-name="Layer 1"><rect class="cls-1" width="216" height="216"/><path class="cls-2" d="M180.36,179.11c-1.73-15.73-10.3-30-24.21-40.4a63.89,63.89,0,0,0,9.8-31.29h1.88a5.53,5.53,0,0,0,5.52-5.53V84.8a5.53,5.53,0,0,0-5.52-5.52h-3.69c-4.14-24-15.26-37.43-34.74-42V33.52A5.53,5.53,0,0,0,123.87,28H92.13a5.52,5.52,0,0,0-5.52,5.52v3.79c-19.49,4.53-30.61,18-34.75,42H48.17a5.53,5.53,0,0,0-5.52,5.52v17.09a5.53,5.53,0,0,0,5.52,5.53h1.88a63.89,63.89,0,0,0,9.8,31.29c-13.91,10.43-22.48,24.67-24.21,40.4a8.06,8.06,0,0,0,2,6.25A8,8,0,0,0,43.56,188H172.44a8,8,0,0,0,5.92-2.64A8.06,8.06,0,0,0,180.36,179.11ZM48.81,85.44H75a3.08,3.08,0,0,0,0-6.16H58.13c4.65-25.13,17-32.71,28.48-35.64v9.42a3.08,3.08,0,0,0,6.16,0V34.16h30.46v5.7h0v13.2a3.09,3.09,0,0,0,6.17,0V43.64c11.44,2.93,23.82,10.51,28.47,35.64H141a3.08,3.08,0,1,0,0,6.16h26.22v15.82H48.81Zm111,22c-1.5,29.19-24.15,52.44-51.78,52.44s-50.28-23.25-51.78-52.44Zm14,73.82a1.75,1.75,0,0,1-1.33.6H43.56a1.75,1.75,0,0,1-1.33-.6,1.82,1.82,0,0,1-.46-1.45c1.53-14,9.18-26.66,21.63-36C74.05,157.35,90.09,166,108,166s33.95-8.67,44.6-22.28c12.45,9.39,20.1,22.09,21.63,36A1.82,1.82,0,0,1,173.77,181.24Z"/><circle class="cls-2" cx="89.69" cy="118.99" r="7.33"/><circle class="cls-2" cx="126.31" cy="118.99" r="7.33" transform="translate(-47.14 124.17) rotate(-45)"/><path class="cls-2" d="M94,140.44A3.08,3.08,0,0,0,96.49,144a67.4,67.4,0,0,0,23,0,3.08,3.08,0,1,0-1.05-6.07,61.23,61.23,0,0,1-20.92,0A3.08,3.08,0,0,0,94,140.44Z"/></g></g></svg>