<svg xmlns="http://www.w3.org/2000/svg" viewBox="0 0 216 216"><defs><style>.cls-1{fill:none;}.cls-2{fill:#252525;}</style></defs><title>icon5</title><g id="Layer_2" data-name="Layer 2"><g id="Layer_1-2" data-name="Layer 1"><rect class="cls-1" width="216" height="216"/><path class="cls-2" d="M161.6,165.94l-22.23-38.5a7.66,7.66,0,0,0-2.36-2.51l-5.25-3.47a12.88,12.88,0,0,1-5.75-9.95,7.51,7.51,0,0,0-11.25-6.05l-1.49.86L79.89,48.51l.3-7.22a7.5,7.5,0,0,0-2.59-6L66,25.28A5.25,5.25,0,0,0,60,24.7L55.4,27.35a5.24,5.24,0,0,0-2.53,5.52l2.9,15a7.45,7.45,0,0,0,3.89,5.23l6.4,3.36,33.38,57.8-1.49.86a7.51,7.51,0,0,0-.39,12.78,12.88,12.88,0,0,1,5.75,9.95l.38,6.28a7.5,7.5,0,0,0,1,3.3L124.63,182h0l2.28,3.94a12.07,12.07,0,0,0,16.47,4.42l13.8-8a12.08,12.08,0,0,0,4.42-16.48Zm-92-114.29L62.4,47.9a1.58,1.58,0,0,1-.82-1.11l-2.8-14.56,3.74-2.16,11.21,9.7a1.6,1.6,0,0,1,.55,1.28L74,49.13a2.9,2.9,0,0,0,.39,1.6l33.77,58.49-3.58,2.07L70.76,52.79A3,3,0,0,0,69.57,51.65Zm30.54,70a1.57,1.57,0,0,1,.79-1.33l16.82-9.71a1.57,1.57,0,0,1,.78-.22,1.6,1.6,0,0,1,.77.2,1.56,1.56,0,0,1,.83,1.31,18.83,18.83,0,0,0,1.26,5.66l-16.26,9.38a18.78,18.78,0,0,0-4.28-3.91A1.56,1.56,0,0,1,100.11,121.62Zm9.48,22.19-.38-6.28a18.57,18.57,0,0,0-1.18-5.48l16.31-9.41a18.44,18.44,0,0,0,4.16,3.76l5.25,3.47a1.59,1.59,0,0,1,.5.53l18.47,32-24.45,14.12-18.47-32A1.77,1.77,0,0,1,109.59,143.81Zm44.64,33.48-13.8,8A6.15,6.15,0,0,1,132,183l-.8-1.38,24.45-14.11.8,1.38A6.15,6.15,0,0,1,154.23,177.29Z"/></g></g></svg>