<svg xmlns="http://www.w3.org/2000/svg" viewBox="0 0 850.39 850.39"><defs><style>.cls-1{fill:#2f302e;}.cls-2{fill:#f3702f;}</style></defs><title>logo_ring_heledale_taustale</title><g id="Layer_2" data-name="Layer 2"><g id="Layer_1-2" data-name="Layer 1"><path class="cls-1" d="M425.2,850.39V830C648.38,830,830,648.38,830,425.2S648.38,20.44,425.2,20.44V0C659.65,0,850.39,190.74,850.39,425.2S659.65,850.39,425.2,850.39Z"/><path class="cls-2" d="M425.2,850.39V830C202,830,20.44,648.38,20.44,425.2S202,20.44,425.2,20.44V0C190.74,0,0,190.74,0,425.2S190.74,850.39,425.2,850.39Z"/><path class="cls-2" d="M425.2,489.54c-60.58,45.89-132.5,89.24-187,11.33-46.07-65.79-54.37-157.32,33.91-245.59L425.2,102.14V279L413.82,267,312.14,368.64c-12.48,12.47-12.12,34.3-4.13,45.72,0,0,9.9,14.14,21.48,12.72,26.09-3.25,59.37-33.19,95.71-61.78Zm0,92.43-27.78-28.7-64.24,64.24,92,130.74Z"/><path class="cls-1" d="M425.2,102.14h0l87,135.81-64.71,64.7L425.2,279Zm0,263.16V489.54c40-30.33,75.09-61.76,96.92-60.05,7.59.73,13.6,10.43,13.6,10.43,12.94,18.49,11.34,33-2.53,46.9L431.51,588.49,425.2,582V748.25L573.28,600.17c91-91,89.11-166.75,36.19-242.32C551.89,275.61,484.48,318.66,425.2,365.3Z"/></g></g></svg>