<svg xmlns="http://www.w3.org/2000/svg" viewBox="0 0 1700.79 248.82"><defs><style>.cls-1{fill:#2f302e;}.cls-2{fill:#f3702f;}</style></defs><title>logo_heledale_taustale</title><g id="Layer_2" data-name="Layer 2"><g id="Layer_1-2" data-name="Layer 1"><path class="cls-1" d="M1443.94,107.8l-6.7,19.92h-36.92L1411.56,64H1495c50.46,0,64,28.68,58.38,60.55-11.1,62.94-97,44.08-117.49,60.81-2.81,2.39-3.61,6.91-3.61,6.91L1430,205h64.8l6.7-19.92h36.91l-11.24,63.74H1378.44l10.4-59c11.38-64.53,87.57-43.29,115.53-60.28,4.76-2.93,6-9.83,6-9.83a10.14,10.14,0,0,0-10.11-12Z"/><path class="cls-1" d="M1698.43,63.71l-15.17,86h17.53l-7.17,40.63H1676.1l-2.95,16.73,17.15,2.13-7,39.57h-75.16l6.89-39,18-2.39,3-17h-75.15l-4.08-40.1,97.59-86.58Zm-85.28,86h30l5.34-30.28h-.27Z"/><path class="cls-2" d="M348.07,62.92c38.25,0,64.1,31.07,57.31,69.58l-8.28,47c-6.7,38-43.56,69.32-81.81,69.32H296.44c-38.24,0-63.79-31.34-57.09-69.32l8.28-47C254.42,94,291,62.92,329.22,62.92Zm13,69.58c2.48-14.08-6.66-25.5-20.73-25.5H321.44c-13.81,0-27.24,11.42-29.72,25.5l-8.29,47c-2.43,13.81,7,25.23,20.78,25.23h18.86c14.07,0,27.24-11.42,29.67-25.23Z"/><path class="cls-2" d="M407.23,209.78l17.95-2.39L443.3,104.61l-17.19-1.86,7-39.57h75.16l-6.88,39-17.95,2.39L465.05,208.72h31.6L506.22,180H545.8l-12.13,68.79H400.35Z"/><path class="cls-2" d="M638.19,104.88l-18,102L637.63,209l-7,39.84H554.92l6.93-39.31,18.21-2.39,18-102.24-17.42-2.13,7-39.83h75.68l-6.93,39.3Z"/><path class="cls-2" d="M785.05,62.92c38.51,0,64.41,30.8,57.62,69.31L834.43,179C827.74,217,792,248,753.87,248.82h-97.2L663.5,210l18-2.39,18.17-103-17.1-2.39,6.93-39.3Zm-25,141.81c14.38-.27,27.5-11.42,30-25.76l8.24-46.74c2.49-14.07-6.66-25.49-21-25.49H739.61l-17.28,98Z"/><path class="cls-2" d="M827.93,248.82l7.07-40.1,16.26-1.86,57.38-107L892.1,98.77l6.27-35.59h90.3l25.6,143.94,14.6,1.6-7.08,40.1H946.64l7.07-40.1,13.83-1.6-1.93-11.68H903.47l-6.36,11.95,13,1.33-7.08,40.1Zm130.41-93.48-8.18-47-25.28,47Z"/><path class="cls-2" d="M1179.32,248.82h-80.73c-38.24,0-63.84-31.08-57.09-69.32l8.28-47c6.75-38.25,43.3-69.32,81.54-69.32h80.2l-12.17,69h-39.84l.69-25h-36.65c-13.81,0-27.24,11.42-29.68,25.23l-8.29,47c-2.43,13.81,7,25.23,20.78,25.23H1147l3.52-19.92h-39.84l7.07-40.1h79.94Z"/><path class="cls-2" d="M1321,62.92c38.25,0,64.11,31.07,57.32,69.58l-8.29,47c-6.7,38-43.56,69.32-81.81,69.32h-18.85c-38.24,0-63.79-31.34-57.09-69.32l8.29-47c6.79-38.51,43.34-69.58,81.58-69.58Zm13,69.58c2.49-14.08-6.65-25.5-20.73-25.5H1294.4c-13.81,0-27.25,11.42-29.73,25.5l-8.29,47c-2.43,13.81,7,25.23,20.78,25.23H1296c14.07,0,27.24-11.42,29.68-25.23Z"/><path class="cls-2" d="M99.63,149.18l47.84-47.84c-25-3-49.34-4.27-60.64-13.06-5-3.92-3.38-13.17-3.38-13.17,1.32-7.48,9.59-16,19.2-16H181l-.26,9L248.82,0H130.87c-68,0-100,38.44-107.64,81.51C14.24,132.53,58.63,143.53,99.63,149.18Z"/><polygon class="cls-2" points="64.39 163.03 14.91 163.03 0 248.82 64.04 184.78 64.39 163.03"/><polygon class="cls-1" points="248.82 0 248.82 0 180.7 68.12 180.17 85.79 230.01 85.79 248.82 0"/><path class="cls-1" d="M221.31,169.44c9.49-53.85-33.05-63.23-73.84-68.1L99.63,149.18c27.09,3.74,52.7,5.14,60.45,14.21,2.64,3.2,1.22,9.25,1.22,9.25-2.14,12.1-8.35,17.09-19,17.09H64l.09-4.95-64,64H114.05C184.17,248.82,212.58,218.91,221.31,169.44Z"/></g></g></svg>